<svg width="59" height="59" viewBox="0 0 59 59" fill="none" xmlns="http://www.w3.org/2000/svg">
<g id="Frame">
<path id="Vector" d="M45.3082 22.7831C42.7865 22.7831 40.6565 20.6026 40.6565 18.0218V11.0685C40.6565 8.48734 42.7866 6.30664 45.3082 6.30664C47.8297 6.30664 49.9599 8.48734 49.9599 11.0685V18.0219C49.9599 20.6473 47.8732 22.7831 45.3082 22.7831ZM13.7394 22.7831C11.218 22.7831 9.08789 20.6026 9.08789 18.0218V11.0685C9.08789 8.48734 11.218 6.30664 13.7394 6.30664C16.2613 6.30664 18.3917 8.48734 18.3917 11.0685V18.0219C18.3917 20.6026 16.2613 22.7831 13.7394 22.7831Z" fill="#D9D9D9"/>
<path id="Line 62" d="M12 40H48.58" stroke="#D9D9D9" stroke-width="7" stroke-linecap="round"/>
</g>
</svg>
