<svg width="59" height="59" viewBox="0 0 59 59" fill="none" xmlns="http://www.w3.org/2000/svg">
<g id="Frame">
<path id="Vector" d="M29.5665 36.9895C39.2729 36.9895 48.4262 41.2117 54.6792 48.5737C55.6674 49.7347 55.5356 51.4528 54.3791 52.486C53.9064 52.9085 53.2835 53.1413 52.6254 53.1413C51.8017 53.1413 51.0154 52.791 50.468 52.1802C45.1836 46.0235 37.539 42.4894 29.4997 42.4894C21.4027 42.4894 13.7578 46.0242 8.52524 52.1873C7.99718 52.8075 7.24084 53.1635 6.45021 53.1635C5.80196 53.1635 5.17572 52.9229 4.68678 52.486C4.10352 51.9904 3.75851 51.3188 3.70839 50.5879C3.65958 49.8744 3.89841 49.185 4.38084 48.6466C10.7419 41.2363 19.9199 36.9895 29.5665 36.9895ZM45.3088 22.7831C42.7871 22.7831 40.6571 20.6026 40.6571 18.0218V11.0685C40.6571 8.48734 42.7872 6.30664 45.3088 6.30664C47.8303 6.30664 49.9605 8.48734 49.9605 11.0685V18.0219C49.9605 20.6473 47.8738 22.7831 45.3088 22.7831ZM13.74 22.7831C11.2186 22.7831 9.08851 20.6026 9.08851 18.0218V11.0685C9.08851 8.48734 11.2186 6.30664 13.74 6.30664C16.262 6.30664 18.3924 8.48734 18.3924 11.0685V18.0219C18.3924 20.6026 16.262 22.7831 13.74 22.7831Z" fill="#D9D9D9"/>
</g>
</svg>
