<svg width="59" height="59" viewBox="0 0 59 59" fill="none" xmlns="http://www.w3.org/2000/svg">
<g id="Frame">
<path id="Vector" d="M54.3791 37.6669C53.9064 37.2444 53.2835 37.0116 52.6254 37.0116C51.8017 37.0116 51.0154 37.3619 50.468 37.9727C45.1836 44.1294 37.539 47.6636 29.4997 47.6636C21.4027 47.6636 13.7578 44.1287 8.52524 37.9656C7.99718 37.3455 7.24084 36.9895 6.45021 36.9895C5.80196 36.9895 5.17572 37.23 4.68678 37.667C4.10352 38.1625 3.75851 38.8341 3.70839 39.565C3.65958 40.2785 3.89841 40.968 4.38084 41.5063C10.7418 48.9166 19.9198 53.1635 29.5665 53.1635C39.2729 53.1635 48.4262 48.9413 54.6792 41.5792C55.6674 40.4183 55.5356 38.7002 54.3791 37.6669ZM45.3087 22.7831C47.8737 22.7831 49.9604 20.6472 49.9604 18.0218V11.0685C49.9604 8.48734 47.8302 6.30664 45.3087 6.30664C42.7871 6.30664 40.6571 8.48734 40.6571 11.0685V18.0218C40.6571 20.6026 42.7871 22.7831 45.3087 22.7831ZM13.7399 22.7831C16.2619 22.7831 18.3923 20.6026 18.3923 18.0218V11.0685C18.3923 8.48734 16.2619 6.30664 13.7399 6.30664C11.2186 6.30664 9.08845 8.48734 9.08845 11.0685V18.0218C9.08839 20.6026 11.2186 22.7831 13.7399 22.7831Z" fill="#D9D9D9"/>
</g>
</svg>
