<svg width="207" height="161" viewBox="0 0 207 161" fill="none" xmlns="http://www.w3.org/2000/svg">
<g id="Thumbnail Container">
<g id="Thumbnail Strip">
<rect id="Thumbnail Segment" x="203.273" y="3.5" width="26.6" height="24.6048" transform="rotate(90 203.273 3.5)" stroke="black" stroke-width="7"/>
<rect id="Thumbnail Segment_2" x="203.273" y="130.898" width="26.6" height="24.6048" transform="rotate(90 203.273 130.898)" stroke="black" stroke-width="7"/>
<rect id="Thumbnail Segment_3" x="203.273" y="105.42" width="26.6" height="24.6048" transform="rotate(90 203.273 105.42)" stroke="black" stroke-width="7"/>
<rect id="Thumbnail Segment_4" x="203.273" y="79.9395" width="26.6" height="24.6048" transform="rotate(90 203.273 79.9395)" stroke="black" stroke-width="7"/>
<rect id="Thumbnail Segment_5" x="203.273" y="3.5" width="26.6" height="24.6048" transform="rotate(90 203.273 3.5)" stroke="black" stroke-width="7"/>
<rect id="Thumbnail Segment_6" x="203.273" y="54.459" width="26.6" height="24.6048" transform="rotate(90 203.273 54.459)" stroke="black" stroke-width="7"/>
<rect id="Thumbnail Segment_7" x="203.273" y="28.9805" width="26.6" height="24.6048" transform="rotate(90 203.273 28.9805)" stroke="black" stroke-width="7"/>
</g>
<g id="Thumbnail Strip_2">
<rect id="Thumbnail Segment_8" x="28.1045" y="3.5" width="26.6" height="24.6048" transform="rotate(90 28.1045 3.5)" stroke="black" stroke-width="7"/>
<rect id="Thumbnail Segment_9" x="28.1045" y="130.898" width="26.6" height="24.6048" transform="rotate(90 28.1045 130.898)" stroke="black" stroke-width="7"/>
<rect id="Thumbnail Segment_10" x="28.1045" y="105.42" width="26.6" height="24.6048" transform="rotate(90 28.1045 105.42)" stroke="black" stroke-width="7"/>
<rect id="Thumbnail Segment_11" x="28.1045" y="79.9395" width="26.6" height="24.6048" transform="rotate(90 28.1045 79.9395)" stroke="black" stroke-width="7"/>
<rect id="Thumbnail Segment_12" x="28.1045" y="3.5" width="26.6" height="24.6048" transform="rotate(90 28.1045 3.5)" stroke="black" stroke-width="7"/>
<rect id="Thumbnail Segment_13" x="28.1045" y="54.459" width="26.6" height="24.6048" transform="rotate(90 28.1045 54.459)" stroke="black" stroke-width="7"/>
<rect id="Thumbnail Segment_14" x="28.1045" y="28.9805" width="26.6" height="24.6048" transform="rotate(90 28.1045 28.9805)" stroke="black" stroke-width="7"/>
</g>
<rect id="Thumbnail Background" x="180.387" y="3.5" width="154" height="154" transform="rotate(90 180.387 3.5)" stroke="black" stroke-width="7"/>
</g>
</svg>
