<svg width="26" height="28" viewBox="0 0 26 28" fill="none" xmlns="http://www.w3.org/2000/svg">
<path id="Vector" d="M5.05091 23.1393L5.04996 22.9908C5.04996 23.0414 5.05034 23.0907 5.05091 23.1393ZM16.1534 6.21175C15.4709 6.21175 14.9176 6.76738 14.9176 7.45409L14.9291 23.0321C14.9291 23.7176 15.4824 24.2744 16.1649 24.2744C16.8474 24.2744 17.4007 23.7176 17.4007 23.0321L17.3899 7.45409C17.3899 6.76741 16.8365 6.21175 16.1534 6.21175ZM24.7642 2.52229L14.9238 2.5269L14.9183 1.24237C14.9183 0.555663 14.3649 0 13.6819 0C13.4568 0 13.2459 0.0607597 13.0641 0.166407C12.8823 0.0607597 12.6713 0 12.446 0C11.7636 0 11.2102 0.555663 11.2102 1.24237L11.2161 2.52864L4.11512 2.53194C4.01549 2.50591 3.91103 2.49201 3.80332 2.49201C3.69524 2.49201 3.59043 2.50604 3.49052 2.53223L1.23581 2.53328C0.55336 2.53328 0 3.09015 0 3.77561C0 4.46232 0.553329 5.01798 1.23581 5.01798L2.56815 5.01735L2.57718 24.1859H2.57901V25.5059C2.57901 26.8781 3.68567 27.9906 5.0506 27.9906H6.2864V28L19.8801 27.992V27.9906H21.1159C22.4633 27.9906 23.5582 26.9064 23.5862 25.5586L23.5761 7.46139C23.5761 6.77471 23.0228 6.21905 22.3403 6.21905C21.6578 6.21905 21.1045 6.77471 21.1045 7.46139L21.1134 23.2616C21.0699 25.1327 20.5396 25.4755 18.6449 25.4755L19.9278 25.5073L5.90463 25.5155L7.52155 25.4755C5.58627 25.4755 5.07434 25.1181 5.05091 23.1393L5.06613 25.516H5.04936L5.0397 5.01614L12.3476 5.01274C12.3838 5.01595 12.4204 5.01792 12.4575 5.01792C12.495 5.01792 12.532 5.01595 12.5687 5.01265L13.5759 5.01217C13.6146 5.01586 13.6537 5.01792 13.6933 5.01792C13.7334 5.01792 13.773 5.01582 13.8122 5.01208L24.7641 5.007C25.4466 5.007 26 4.45134 26 3.76466C26 3.07796 25.4466 2.52229 24.7642 2.52229ZM21.1135 23.4679L21.1146 25.5066H21.1004L21.1135 23.4679ZM9.97447 6.21175C9.29199 6.21175 8.73866 6.76738 8.73866 7.45409L8.75013 23.0321C8.75013 23.7176 9.30345 24.2744 9.98596 24.2744C10.6684 24.2744 11.2217 23.7176 11.2217 23.0321L11.2103 7.45409C11.2102 6.76741 10.6569 6.21175 9.97447 6.21175Z" fill="#272636"/>
</svg>
